<svg width="24" height="24" viewBox="0 0 24 24" fill="none" xmlns="http://www.w3.org/2000/svg">
<path d="M4.22222 9.18555V16.5191C4.22222 18.4377 4.22222 19.3969 4.58553 20.1297C4.90511 20.7742 5.41504 21.2982 6.04226 21.6266C6.75529 22 7.68871 22 9.55556 22H14.4444C16.3113 22 17.2447 22 17.9578 21.6266C18.585 21.2982 19.0949 20.7742 19.4144 20.1297C19.7778 19.3969 19.7778 18.4377 19.7778 16.5191V3.73043M22 11.7234L15.9631 4.83114C14.5901 3.26364 13.9037 2.4799 13.0951 2.19055C12.3851 1.93642 11.6122 1.93648 10.9021 2.19073C10.0937 2.48019 9.40734 3.26404 8.0346 4.83174L2 11.7234" stroke="white" stroke-width="3" stroke-linecap="round" stroke-linejoin="round"/>
</svg>
