<svg width="60" height="60" viewBox="0 0 60 60" fill="none" xmlns="http://www.w3.org/2000/svg">
<path d="M38.3239 52.4431L36.1854 51.5289C34.1621 50.6604 31.5485 50.6604 29.518 51.5289L27.3796 52.4431C26.4003 52.8622 24.9243 52.8622 23.9523 52.4431L21.8138 51.5289C19.7905 50.6604 17.1769 50.6604 15.1464 51.5289L12.3527 52.725C12.0893 52.8374 11.8494 53.0037 11.6467 53.2143C11.4441 53.4249 11.2826 53.6757 11.1716 53.9523C11.0606 54.229 11.0022 54.5261 10.9998 54.8266C10.9974 55.1272 11.051 55.4253 11.1575 55.7039C11.3733 56.2658 11.7907 56.7143 12.3183 56.9514C12.846 57.1884 13.4409 57.1946 13.9728 56.9686L16.7665 55.7725C17.7457 55.3535 19.2145 55.3535 20.1938 55.7725L22.3322 56.6867C23.3474 57.121 24.5067 57.3343 25.6659 57.3343C26.8251 57.3343 27.9844 57.121 28.9996 56.6867L31.1381 55.7725C32.1173 55.3535 33.5861 55.3535 34.5653 55.7725L36.7038 56.6867C37.8126 57.1591 39.0655 56.5953 39.5191 55.422C39.9655 54.2488 39.4327 52.9155 38.3239 52.4431ZM24.5931 43.7427L22.4546 42.9351C20.4818 42.1885 17.9329 42.1885 15.9528 42.9351L13.1592 43.9941C12.8923 44.0948 12.6468 44.2502 12.4367 44.4514C12.2267 44.6527 12.0563 44.8958 11.9352 45.1669C11.8142 45.4379 11.7448 45.7316 11.7312 46.0311C11.7176 46.3306 11.76 46.6299 11.8559 46.912C12.2591 48.1005 13.4904 48.7253 14.6136 48.291L17.4073 47.232C18.4297 46.8435 19.9778 46.8435 21.0002 47.232L23.1386 48.0396C24.1251 48.4129 25.2555 48.6034 26.3859 48.6034C27.5164 48.6034 28.6468 48.4129 29.6332 48.0396L31.7717 47.232C31.9877 47.1482 32.2325 47.0872 32.5061 47.0339C33.6797 46.8206 34.4717 45.6397 34.2701 44.3979C34.1733 43.801 33.8566 43.2692 33.3895 42.9192C32.9224 42.5692 32.3431 42.4297 31.7789 42.5313C31.2605 42.6227 30.7708 42.7599 30.3172 42.9275L28.1788 43.7351C27.1563 44.1312 25.6155 44.1312 24.5931 43.7427ZM27.79 34.9584C26.9187 35.2632 25.6011 35.2632 24.7227 34.9584L22.8506 34.3108C21.101 33.7013 18.8401 33.7013 17.0905 34.3108L14.6496 35.1565C14.1056 35.3473 13.655 35.7579 13.3961 36.2988C13.1371 36.8397 13.0908 37.467 13.2672 38.0439C13.4475 38.6195 13.8355 39.0963 14.3467 39.3703C14.8579 39.6444 15.4508 39.6934 15.996 39.5067L18.4369 38.6611C19.3081 38.3563 20.6258 38.3563 21.5042 38.6611L23.3762 39.3086C24.2475 39.6134 25.2555 39.7658 26.2563 39.7658C27.2572 39.7658 28.258 39.6134 29.1364 39.3086C29.6804 39.1179 30.131 38.7072 30.3899 38.1663C30.6489 37.6254 30.6952 36.9981 30.5188 36.4212C30.3392 35.8451 29.9512 35.3678 29.4398 35.0937C28.9284 34.8196 28.3352 34.7709 27.79 34.9584ZM16.7665 30.6539H22.4474C23.6427 30.6539 24.6075 29.633 24.6075 28.3683C24.6075 27.1036 23.6427 26.0827 22.4474 26.0827H16.7665C15.5712 26.0827 14.6064 27.1036 14.6064 28.3683C14.6064 29.633 15.5712 30.6539 16.7665 30.6539ZM23.8587 20.5059H23.9811L48.3321 20.7725C49.5274 20.8106 50.4994 19.7745 50.5138 18.5098C50.5282 17.2451 49.5706 16.2166 48.3753 16.2014L43.2488 16.148L38.1582 11.234L47.4753 5.2077L56.2523 15.2643C56.6772 15.7519 57.2604 16.0033 57.8436 16.0033C58.3692 16.0033 58.8948 15.8052 59.3052 15.3938C59.726 14.9825 59.9753 14.4112 59.9983 13.8055C60.0212 13.1997 59.816 12.6092 59.4276 12.1635L49.4482 0.735572C49.1088 0.347842 48.6534 0.095917 48.1589 0.0223498C47.6643 -0.0512175 47.1609 0.0580812 46.7337 0.331785L34.8318 8.02659L32.8013 6.0686C32.2613 5.55054 31.5125 5.35245 30.8068 5.54292L23.0738 7.65328L19.6537 4.39251C18.9337 3.70683 17.8681 3.61541 17.0473 4.16395L12.3815 7.30282L8.82465 4.3087C8.02543 3.63065 6.88059 3.64588 6.09577 4.33918L0.774829 9.03987C0.33548 9.42939 0.0599785 9.98732 0.00869272 10.5914C-0.0425931 11.1955 0.13452 11.7964 0.501221 12.2625C0.869353 12.7274 1.39663 13.0189 1.96753 13.0732C2.53842 13.1275 3.10636 12.9401 3.5469 12.552L7.51421 9.04748L14.448 14.8833C14.844 15.2186 15.3192 15.3786 15.7944 15.3786C16.4281 15.3786 17.0617 15.0814 17.4865 14.5177C18.2281 13.5272 18.0769 12.0949 17.1409 11.3026L15.9672 10.3122L17.9905 8.94844L20.9066 11.7292L24.0099 15.9347C16.7377 15.8585 10.2791 20.9782 8.29183 28.3759L0.652425 56.7553C0.561574 57.0953 0.546207 57.453 0.607521 57.8004C0.668836 58.1478 0.805174 58.4755 1.0059 58.758C1.20663 59.0404 1.46631 59.27 1.7647 59.4287C2.06308 59.5875 2.3921 59.6712 2.72608 59.6732C3.66931 59.6732 4.53333 59.018 4.79974 58.0123L12.4319 29.6406C13.8864 24.2466 18.5737 20.5059 23.8587 20.5059ZM36.7686 16.0795L29.5252 15.9957L26.2203 11.5083L30.7564 10.2741L36.7686 16.0795ZM57.5124 23.1191L35.271 22.7915H35.1846C32.9237 22.7915 30.8932 24.1095 29.8564 26.2351C29.3433 27.2859 29.1198 28.4682 29.2115 29.647C29.3031 30.8257 29.7063 31.9535 30.3748 32.9014C30.4108 32.9471 30.4468 33.0004 30.4828 33.0461L52.0258 59.2161C52.212 59.4424 52.4385 59.6276 52.6924 59.7612C52.9462 59.8948 53.2225 59.9741 53.5054 59.9947C53.7882 60.0152 54.0722 59.9765 54.3409 59.8808C54.6096 59.7851 54.8579 59.6343 55.0715 59.437C55.2855 59.2401 55.4606 59.0005 55.5869 58.7318C55.7132 58.4632 55.7882 58.1709 55.8076 57.8715C55.827 57.5722 55.7904 57.2717 55.6999 56.9874C55.6095 56.703 55.4669 56.4403 55.2803 56.2144L33.8021 30.1206C33.2981 29.3435 33.5573 28.6121 33.7013 28.3226C33.8453 28.0255 34.2701 27.3398 35.2134 27.3626L57.4548 27.6902C58.6212 27.675 59.6292 26.6998 59.6436 25.4351C59.6483 24.8299 59.4271 24.2471 59.028 23.8135C58.6289 23.3798 58.0843 23.1303 57.5124 23.1191Z" fill="#447D41"/>
</svg>
